# MagicaVoxel @ Ephtracy

# group
o 

# material
mtllib path90.mtl
usemtl palette

# normals
vn -1 0 0
vn 1 0 0
vn 0 0 1
vn 0 0 -1
vn 0 -1 0
vn 0 1 0

# texcoords
vt 0.537109 0.5
vt 0.908203 0.5

# verts
v -5 0 5
v -5 0 -5
v -5 1.2 5
v -5 1.2 -5
v 1.8 0.1 5
v 1.8 0.1 1.8
v 1.8 1.2 5
v 1.8 1.2 1.8
v -1.8 0.1 5
v -1.8 0.1 -1.9
v -1.8 1.2 5
v -1.8 1.2 -1.9
v 5 0 5
v 5 0 1.8
v 5 0 -1.9
v 5 0 -5
v 5 0.1 1.8
v 5 0.1 -1.9
v 5 1.2 5
v 5 1.2 1.8
v 5 1.2 -1.9
v 5 1.2 -5
v -5 0 5
v -5 1.2 5
v -1.8 0 5
v -1.8 0.1 5
v -1.8 1.2 5
v 1.8 0 5
v 1.8 0.1 5
v 1.8 1.2 5
v 5 0 5
v 5 1.2 5
v -1.8 0.1 -1.9
v -1.8 1.2 -1.9
v 5 0.1 -1.9
v 5 1.2 -1.9
v 1.8 0.1 1.8
v 1.8 1.2 1.8
v 5 0.1 1.8
v 5 1.2 1.8
v -5 0 -5
v -5 1.2 -5
v 5 0 -5
v 5 1.2 -5
v -5 0 5
v -1.8 0 5
v 1.8 0 5
v 5 0 5
v 1.8 0 1.8
v 5 0 1.8
v 1.8 0 -1.9
v 5 0 -1.9
v -1.8 0 -4.9
v 1.8 0 -4.9
v -5 0 -5
v 5 0 -5
v -1.8 0.1 5
v 1.8 0.1 5
v 1.8 0.1 1.8
v 5 0.1 1.8
v -1.8 0.1 -1.9
v 5 0.1 -1.9
v -5 1.2 5
v -1.8 1.2 5
v 1.8 1.2 5
v 5 1.2 5
v 1.8 1.2 1.8
v 5 1.2 1.8
v -1.8 1.2 -1.9
v 5 1.2 -1.9
v -5 1.2 -5
v 5 1.2 -5

# faces
f 3/2/1 2/2/1 1/2/1
f 4/2/1 2/2/1 3/2/1
f 7/2/1 6/2/1 5/2/1
f 8/2/1 6/2/1 7/2/1
f 9/2/2 10/2/2 11/2/2
f 11/2/2 10/2/2 12/2/2
f 13/2/2 14/2/2 17/2/2
f 14/1/2 15/1/2 17/1/2
f 15/2/2 16/2/2 18/2/2
f 17/1/2 15/1/2 18/1/2
f 13/2/2 17/2/2 19/2/2
f 19/2/2 17/2/2 20/2/2
f 18/2/2 16/2/2 21/2/2
f 21/2/2 16/2/2 22/2/2
f 25/2/3 24/2/3 23/2/3
f 26/2/3 24/2/3 25/2/3
f 27/2/3 24/2/3 26/2/3
f 28/1/3 26/1/3 25/1/3
f 29/1/3 26/1/3 28/1/3
f 31/2/3 29/2/3 28/2/3
f 31/2/3 30/2/3 29/2/3
f 32/2/3 30/2/3 31/2/3
f 35/2/3 34/2/3 33/2/3
f 36/2/3 34/2/3 35/2/3
f 37/2/4 38/2/4 39/2/4
f 39/2/4 38/2/4 40/2/4
f 41/2/4 42/2/4 43/2/4
f 43/2/4 42/2/4 44/2/4
f 49/1/5 47/1/5 46/1/5
f 49/2/5 48/2/5 47/2/5
f 50/2/5 48/2/5 49/2/5
f 51/1/5 49/1/5 46/1/5
f 51/1/5 50/1/5 49/1/5
f 52/1/5 50/1/5 51/1/5
f 53/2/5 46/2/5 45/2/5
f 53/1/5 51/1/5 46/1/5
f 54/2/5 52/2/5 51/2/5
f 54/1/5 51/1/5 53/1/5
f 55/2/5 53/2/5 45/2/5
f 55/2/5 54/2/5 53/2/5
f 56/2/5 52/2/5 54/2/5
f 56/2/5 54/2/5 55/2/5
f 57/1/6 58/1/6 59/1/6
f 57/1/6 59/1/6 61/1/6
f 59/1/6 60/1/6 61/1/6
f 61/1/6 60/1/6 62/1/6
f 65/2/6 66/2/6 67/2/6
f 67/2/6 66/2/6 68/2/6
f 63/2/6 64/2/6 69/2/6
f 63/2/6 69/2/6 71/2/6
f 69/2/6 70/2/6 71/2/6
f 71/2/6 70/2/6 72/2/6
